{"glyphs":{":":{"x_min":0,"x_max":600,"ha":600,"o":"m 86 434 l 386 434 l 386 57 l 386 43 l 386 32 l 385 -3 q 385 -21 381 -33 q 376 -66 362 -91 q 323 -165 205 -165 q 129 -165 71 -136 l 79 -102 l 146 -125 l 175 -130 l 207 -132 q 308 -132 336 -61 q 350 -21 350 62 l 350 400 l 86 400 z"},"$":{"x_min":0,"x_max":600,"ha":600,"o":"m 272 662 l 353 662 l 496 504 l 473 485 l 310 620 l 158 485 l 133 504 z"},"?":{"x_min":0,"x_max":600,"ha":600,"o":"m 324 564 l 541 35 l 590 35 l 590 1 l 394 1 l 394 35 l 501 35 l 438 191 l 166 191 l 102 35 l 205 35 l 205 1 l 12 1 l 12 35 l 61 35 l 266 530 l 113 530 l 113 564 z m 193 637 l 193 743 l 260 743 l 260 637 z m 342 637 l 342 743 l 408 743 l 408 637 z m 303 522 l 179 226 l 423 226 z"},"<":{"x_min":0,"x_max":600,"ha":600,"o":"m 104 403 q 153 422 202 434 q 251 445 289 445 q 358 445 403 418 q 458 384 458 299 l 458 35 l 553 35 l 553 1 l 421 1 l 421 88 q 329 -10 218 -10 q 148 -10 104 28 q 60 66 60 127 q 60 192 116 233 q 172 274 262 274 q 294 274 328 271 q 363 268 404 261 l 421 257 l 421 296 q 421 357 387 385 q 349 412 288 412 q 209 412 117 371 z m 420 663 l 232 487 l 191 487 l 325 663 z m 421 226 q 334 238 282 238 q 198 238 150 208 q 101 177 101 125 q 101 83 134 53 q 167 23 218 23 q 269 23 319 50 q 369 78 421 136 z"},"'":{"x_min":0,"x_max":600,"ha":600,"o":"m 415 662 l 227 487 l 187 487 l 320 662 z"},"=":{"x_min":0,"x_max":600,"ha":600,"o":"m 324 564 l 541 35 l 590 35 l 590 1 l 394 1 l 394 35 l 501 35 l 438 191 l 166 191 l 102 35 l 205 35 l 205 1 l 12 1 l 12 35 l 61 35 l 266 530 l 113 530 l 113 564 z m 258 776 l 338 776 l 482 617 l 458 599 l 296 733 l 144 599 l 119 617 z m 303 522 l 179 226 l 423 226 z"},"a":{"x_min":0,"x_max":600,"ha":600,"o":"m 44 283 q 44 408 116 492 q 188 575 301 575 q 412 575 485 492 q 558 410 558 283 q 558 155 485 72 q 412 -10 301 -10 q 191 -10 118 71 q 44 152 44 283 z m 187 776 l 274 776 l 415 602 l 375 602 z m 85 282 q 85 170 146 96 q 207 23 301 23 q 394 23 456 97 q 518 171 518 282 q 518 396 457 469 q 396 542 301 542 q 208 542 146 468 q 85 395 85 282 z"},"L":{"x_min":0,"x_max":600,"ha":600,"o":"m 487 109 l 521 94 q 486 42 434 16 q 382 -10 319 -10 q 211 -10 143 54 q 75 117 75 218 q 75 315 142 380 q 208 445 310 445 q 406 445 471 384 q 536 324 536 230 l 536 213 l 114 213 q 114 129 172 76 q 229 23 318 23 q 376 23 415 43 q 454 63 487 109 z m 276 663 l 356 663 l 501 505 l 477 486 l 313 621 l 162 486 l 137 505 z m 116 247 l 499 247 q 487 322 436 367 q 384 412 308 412 q 233 412 182 367 q 131 322 116 247 z"},"3":{"x_min":0,"x_max":600,"ha":600,"o":"m 366 1 q 341 -5 326 -16 q 289 -38 289 -62 q 289 -74 298 -83 q 307 -92 320 -92 q 338 -92 361 -75 l 365 -73 l 357 -112 q 329 -137 297 -137 q 272 -137 254 -120 q 236 -103 236 -77 q 236 -24 304 1 z"},";":{"x_min":0,"x_max":600,"ha":600,"o":"m 324 564 l 541 35 l 590 35 l 590 1 l 394 1 l 394 35 l 501 35 l 438 191 l 166 191 l 102 35 l 205 35 l 205 1 l 12 1 l 12 35 l 61 35 l 266 530 l 113 530 l 113 564 z m 415 776 l 227 601 l 187 601 l 327 776 z m 303 522 l 179 226 l 423 226 z"},"J":{"x_min":0,"x_max":600,"ha":600,"o":"m 487 109 l 521 94 q 486 42 434 16 q 382 -10 319 -10 q 211 -10 143 54 q 75 117 75 218 q 75 315 142 380 q 208 445 310 445 q 406 445 471 384 q 536 324 536 230 l 536 213 l 114 213 q 114 129 172 76 q 229 23 318 23 q 376 23 415 43 q 454 63 487 109 z m 439 663 l 252 487 l 212 487 l 345 663 z m 116 247 l 499 247 q 487 322 436 367 q 384 412 308 412 q 233 412 182 367 q 131 322 116 247 z"},"V":{"x_min":0,"x_max":600,"ha":600,"o":"m 322 435 l 322 35 l 498 35 l 498 1 l 104 1 l 104 35 l 286 35 l 286 400 l 133 400 l 133 435 z m 193 519 l 193 625 l 260 625 l 260 519 z m 341 519 l 341 625 l 408 625 l 408 519 z"},"\"":{"x_min":0,"x_max":600,"ha":600,"o":"m 248 222 l 248 353 l 354 353 l 354 222 z"},"7":{"x_min":0,"x_max":600,"ha":600,"o":"m 108 627 l 162 627 q 206 560 301 560 q 394 560 439 627 l 493 627 q 472 573 422 543 q 371 513 301 513 q 232 513 182 543 q 132 573 108 627 z"},"S":{"x_min":0,"x_max":600,"ha":600,"o":"m 104 564 l 498 564 l 498 530 l 321 530 l 321 35 l 498 35 l 498 1 l 104 1 l 104 35 l 284 35 l 284 530 l 104 530 z m 258 776 l 338 776 l 482 617 l 458 599 l 295 733 l 144 599 l 119 617 z"},"}":{"x_min":0,"x_max":600,"ha":600,"o":"m 324 564 l 541 35 l 590 35 l 590 1 l 394 1 l 394 35 l 501 35 l 438 191 l 166 191 l 102 35 l 205 35 l 205 1 l 12 1 l 12 35 l 61 35 l 266 530 l 113 530 l 113 564 z m 90 698 l 512 698 l 512 664 l 90 664 z m 303 522 l 179 226 l 423 226 z"},"Z":{"x_min":0,"x_max":600,"ha":600,"o":"m 41 435 l 162 435 l 162 363 q 247 445 349 445 q 439 445 473 389 q 492 349 492 281 l 492 35 l 577 35 l 577 1 l 371 1 l 371 35 l 455 35 l 455 276 q 455 341 440 370 q 417 412 352 412 q 253 412 162 321 l 162 35 l 247 35 l 247 1 l 41 1 l 41 35 l 125 35 l 125 400 l 41 400 z m 460 615 l 500 604 q 485 562 455 538 q 425 514 386 514 q 348 514 300 549 l 273 567 l 253 578 q 245 582 228 585 q 183 585 158 520 l 118 530 q 151 628 226 628 q 251 628 266 622 q 280 615 313 591 q 361 558 391 558 q 433 558 460 615 z"},"x":{"x_min":0,"x_max":600,"ha":600,"o":"m 313 545 l 197 474 l 174 510 l 268 565 q 250 572 231 577 q 212 582 183 588 l 139 593 l 82 595 l 106 631 l 121 631 q 166 631 214 622 q 263 613 311 594 l 416 658 l 440 622 l 354 570 q 443 519 496 426 q 548 333 548 227 q 548 119 481 52 q 414 -14 301 -14 q 192 -14 123 51 q 54 116 54 218 q 54 320 123 384 q 192 448 300 448 q 394 448 460 400 q 433 451 402 482 q 371 513 313 545 z m 301 415 q 211 415 154 360 q 96 306 96 218 q 96 135 153 76 q 180 50 218 36 q 255 21 301 21 q 390 21 448 76 q 506 131 506 217 q 506 304 448 360 q 390 415 301 415 z"},")":{"x_min":0,"x_max":600,"ha":600,"o":"m 90 578 l 512 578 l 512 545 l 90 545 z"},"&":{"x_min":0,"x_max":600,"ha":600,"o":"m 477 705 l 508 691 l 129 -142 l 98 -128 z"},"_":{"x_min":0,"x_max":600,"ha":600,"o":"m 44 283 q 44 408 116 492 q 188 575 301 575 q 412 575 485 492 q 558 410 558 283 q 558 155 485 72 q 412 -10 301 -10 q 191 -10 118 71 q 44 152 44 283 z m 193 637 l 193 743 l 260 743 l 260 637 z m 342 637 l 342 743 l 408 743 l 408 637 z m 85 282 q 85 170 146 96 q 207 23 301 23 q 394 23 456 97 q 518 171 518 282 q 518 396 457 469 q 396 542 301 542 q 208 542 146 468 q 85 395 85 282 z"},"v":{"x_min":0,"x_max":600,"ha":600,"o":"m 146 400 l 319 59 l 479 400 l 405 400 l 405 434 l 573 434 l 573 400 l 520 400 l 258 -154 l 84 -154 l 84 -121 l 236 -121 l 300 17 l 104 400 l 47 400 l 47 434 l 221 434 l 221 400 z m 471 662 l 283 487 l 242 487 l 376 662 z"},"O":{"x_min":0,"x_max":600,"ha":600,"o":"m 531 564 l 531 391 l 496 391 l 496 530 l 182 530 l 182 315 l 362 315 l 362 391 l 397 391 l 397 208 l 362 208 l 362 282 l 182 282 l 182 35 l 503 35 l 503 176 l 538 176 l 538 1 l 61 1 l 61 35 l 145 35 l 145 530 l 61 530 l 61 564 z m 186 776 l 273 776 l 413 601 l 373 601 z"},"(":{"x_min":0,"x_max":600,"ha":600,"o":"m 194 519 l 194 625 l 261 625 l 261 519 z m 342 519 l 342 625 l 408 625 l 408 519 z"},"C":{"x_min":0,"x_max":600,"ha":600,"o":"m 324 564 l 541 35 l 590 35 l 590 1 l 394 1 l 394 35 l 501 35 l 438 191 l 166 191 l 102 35 l 205 35 l 205 1 l 12 1 l 12 35 l 61 35 l 266 530 l 113 530 l 113 564 z m 301 759 q 329 759 350 738 q 371 716 371 687 q 371 656 351 636 q 331 615 301 615 q 275 615 252 636 q 230 658 230 687 q 230 717 251 738 q 272 759 301 759 z m 303 522 l 179 226 l 423 226 z m 301 725 q 289 725 279 714 q 273 705 271 687 q 271 671 279 660 q 287 649 301 649 q 310 649 320 660 q 328 671 330 687 q 330 702 323 712 q 316 722 301 725 z"},"W":{"x_min":0,"x_max":600,"ha":600,"o":"m 104 564 l 498 564 l 498 530 l 321 530 l 321 35 l 498 35 l 498 1 l 104 1 l 104 35 l 284 35 l 284 530 l 104 530 z m 187 776 l 274 776 l 415 601 l 375 601 z"},"A":{"x_min":0,"x_max":600,"ha":600,"o":"m 0 0 z m 324 564 l 541 35 l 590 35 l 590 1 l 394 1 l 394 35 l 501 35 l 438 191 l 166 191 l 102 35 l 205 35 l 205 1 l 12 1 l 12 35 l 61 35 l 266 530 l 113 530 l 113 564 z m 187 776 l 274 776 l 415 601 l 375 601 z m 303 522 l 179 226 l 423 226 z"},"f":{"x_min":0,"x_max":600,"ha":600,"o":"m 154 435 l 154 169 q 154 147 154 130 q 154 114 158 100 q 161 87 166 80 q 170 72 181 61 q 216 23 271 23 q 312 23 362 53 q 412 83 448 132 l 448 401 l 363 401 l 363 435 l 484 435 l 484 35 l 569 35 l 569 1 l 448 1 l 448 83 q 362 -10 268 -10 q 235 -10 205 2 q 175 14 154 35 q 117 75 117 166 l 117 401 l 33 401 l 33 435 z m 259 663 l 339 663 l 483 505 l 459 486 l 296 621 l 145 486 l 119 505 z"},"Q":{"x_min":0,"x_max":600,"ha":600,"o":"m 104 564 l 498 564 l 498 530 l 321 530 l 321 35 l 498 35 l 498 1 l 104 1 l 104 35 l 284 35 l 284 530 l 104 530 z m 415 776 l 227 601 l 187 601 l 327 776 z"},"w":{"x_min":0,"x_max":600,"ha":600,"o":"m 118 35 l 118 277 l 44 277 l 44 311 l 118 311 l 118 530 l 34 530 l 34 564 l 282 564 q 353 564 398 549 q 442 536 478 499 q 552 422 552 283 q 552 207 529 151 q 510 95 466 56 q 435 28 391 14 q 345 1 282 1 l 34 1 l 34 35 z m 155 35 l 282 35 q 342 35 380 47 q 417 59 446 91 q 477 123 494 174 q 512 225 512 282 q 512 340 490 396 q 469 453 438 483 q 386 530 282 530 l 155 530 l 155 311 l 324 311 l 324 277 l 155 277 z"},"-":{"x_min":0,"x_max":600,"ha":600,"o":"m 295 -67 l 365 -67 l 282 -253 l 236 -253 z"},"E":{"x_min":0,"x_max":600,"ha":600,"o":"m 543 564 l 543 391 l 507 391 l 507 530 l 347 530 l 347 317 l 427 317 l 427 392 l 463 392 l 463 210 l 427 210 l 427 283 l 347 283 l 347 35 l 518 35 l 518 175 l 553 175 l 553 1 l 310 1 l 310 191 l 172 191 l 106 35 l 201 35 l 201 1 l 22 1 l 22 35 l 67 35 l 271 530 l 162 530 l 162 564 z m 310 530 l 183 226 l 310 226 z"},"s":{"x_min":0,"x_max":600,"ha":600,"o":"m 44 283 q 44 408 116 492 q 188 575 301 575 q 412 575 485 492 q 558 410 558 283 q 558 155 485 72 q 412 -10 301 -10 q 191 -10 118 71 q 44 152 44 283 z m 452 728 l 492 718 q 480 675 448 652 q 418 628 378 628 q 357 628 339 634 q 321 641 291 662 l 267 678 l 248 689 q 239 694 219 697 q 174 697 149 633 l 109 644 q 144 741 218 741 q 242 741 257 733 q 276 727 306 704 l 328 689 l 349 678 q 365 673 383 671 q 403 671 422 686 q 441 700 452 728 z m 85 282 q 85 170 146 96 q 207 23 301 23 q 394 23 456 97 q 518 171 518 282 q 518 396 457 469 q 396 542 301 542 q 208 542 146 468 q 85 395 85 282 z"},">":{"x_min":0,"x_max":600,"ha":600,"o":"m 104 403 q 153 422 202 434 q 251 445 289 445 q 358 445 403 418 q 458 384 458 299 l 458 35 l 553 35 l 553 1 l 421 1 l 421 88 q 329 -10 218 -10 q 148 -10 104 28 q 60 66 60 127 q 60 192 116 233 q 172 274 262 274 q 294 274 328 271 q 363 268 404 261 l 421 257 l 421 296 q 421 357 387 385 q 349 412 288 412 q 209 412 117 371 z m 264 663 l 344 663 l 488 505 l 464 486 l 301 621 l 149 486 l 124 505 z m 421 226 q 334 238 282 238 q 198 238 150 208 q 101 177 101 125 q 101 83 134 53 q 167 23 218 23 q 269 23 319 50 q 369 78 421 136 z"},"l":{"x_min":0,"x_max":600,"ha":600,"o":"m 113 400 l 286 59 l 446 400 l 372 400 l 372 434 l 540 434 l 540 400 l 487 400 l 225 -154 l 51 -154 l 51 -121 l 203 -121 l 267 17 l 71 400 l 14 400 l 14 434 l 188 434 l 188 400 z m 183 519 l 183 625 l 249 625 l 249 519 z m 331 519 l 331 625 l 397 625 l 397 519 z"},"8":{"x_min":0,"x_max":600,"ha":600,"o":"m 243 69 q 307 23 380 23 q 448 23 492 52 q 537 81 537 126 q 537 163 503 188 l 468 204 l 409 226 q 335 252 304 278 q 274 305 274 346 q 274 391 309 417 l 332 432 l 377 452 q 421 472 437 488 q 453 504 453 530 q 453 598 331 598 l 314 597 q 232 597 211 586 q 190 576 178 551 q 169 527 169 481 l 169 1 l 58 1 l 58 35 l 132 35 l 132 400 l 58 400 l 58 435 l 132 435 l 132 479 q 132 569 168 600 q 204 631 312 631 q 414 631 454 608 q 494 585 494 528 q 494 484 446 446 l 373 411 q 343 399 328 384 l 320 370 q 317 363 315 347 q 315 315 352 291 l 380 276 l 427 260 l 486 238 q 520 223 539 210 q 578 181 578 128 q 578 68 523 29 q 468 -10 377 -10 q 325 -10 292 0 q 259 11 221 37 z"},"\\":{"x_min":0,"x_max":600,"ha":600,"o":"m 67 218 q 67 317 132 381 q 198 445 301 445 q 401 445 467 382 q 533 319 533 218 q 533 117 470 54 q 406 -10 301 -10 q 201 -10 134 53 q 67 116 67 218 z m 428 663 l 240 487 l 199 487 l 333 663 z m 108 218 q 108 136 162 80 q 216 23 301 23 q 385 23 439 77 q 493 131 493 218 q 493 301 438 356 q 384 412 301 412 q 219 412 164 358 q 108 303 108 218 z"},"e":{"x_min":0,"x_max":600,"ha":600,"o":"m 104 530 l 30 530 l 30 564 l 244 564 l 244 530 l 142 530 l 142 229 l 142 176 q 142 101 184 62 q 226 23 307 23 q 383 23 428 62 q 472 101 472 176 l 472 229 l 472 530 l 368 530 l 368 564 l 582 564 l 582 530 l 508 530 l 508 226 l 508 209 l 508 196 l 508 185 l 507 151 q 507 136 503 127 q 498 98 481 72 q 429 -10 307 -10 q 172 -10 123 87 q 114 110 108 138 l 104 226 z m 264 776 l 344 776 l 488 617 l 464 599 l 301 734 l 149 599 l 124 617 z"},"b":{"x_min":0,"x_max":600,"ha":600,"o":"m 67 218 q 67 317 132 381 q 198 445 301 445 q 401 445 467 382 q 533 319 533 218 q 533 117 470 54 q 406 -10 301 -10 q 201 -10 134 53 q 67 116 67 218 z m 187 663 l 281 663 l 415 487 l 374 487 z m 108 218 q 108 136 162 80 q 216 23 301 23 q 385 23 439 77 q 493 131 493 218 q 493 301 438 356 q 384 412 301 412 q 219 412 164 358 q 108 303 108 218 z"},"%":{"x_min":0,"x_max":600,"ha":600,"o":"m 161 391 l 161 424 l 441 424 l 441 391 z"},"m":{"x_min":0,"x_max":600,"ha":600,"o":"m 324 564 l 541 35 l 590 35 l 590 1 l 394 1 l 394 35 l 501 35 l 438 191 l 166 191 l 102 35 l 205 35 l 205 1 l 12 1 l 12 35 l 61 35 l 266 530 l 113 530 l 113 564 z m 452 728 l 492 718 q 477 676 447 652 q 417 628 378 628 q 358 628 340 634 q 322 639 291 661 q 264 682 250 688 q 236 694 219 697 q 174 697 149 632 l 109 644 q 144 741 218 741 q 242 741 257 733 q 276 727 306 704 l 328 689 l 349 678 q 365 673 383 671 q 403 671 422 686 q 441 700 452 728 z m 303 522 l 179 226 l 423 226 z"},"#":{"x_min":0,"x_max":600,"ha":600,"o":"m 460 614 l 500 604 q 485 562 455 538 q 425 514 386 514 q 366 514 346 520 q 327 526 301 549 l 256 577 l 228 584 q 183 584 158 519 l 118 530 q 151 628 226 628 q 250 628 265 620 q 284 614 314 591 l 334 577 l 356 565 l 391 558 q 436 558 460 614 z"},",":{"x_min":0,"x_max":600,"ha":600,"o":"m 60 659 l 130 659 l 47 474 l 1 474 z"},"n":{"x_min":0,"x_max":600,"ha":600,"o":"m 104 403 q 153 422 202 434 q 251 445 289 445 q 358 445 403 418 q 458 384 458 299 l 458 35 l 553 35 l 553 1 l 421 1 l 421 88 q 329 -10 218 -10 q 148 -10 104 28 q 60 66 60 127 q 60 192 116 233 q 172 274 262 274 q 294 274 328 271 q 363 268 404 261 l 421 257 l 421 296 q 421 357 387 385 q 349 412 288 412 q 209 412 117 371 z m 457 615 l 497 605 q 482 565 452 538 q 423 515 383 515 q 363 515 344 521 q 326 527 297 549 l 270 567 l 250 578 q 242 582 225 585 q 180 585 155 520 l 115 530 q 148 628 223 628 q 247 628 261 621 q 274 616 311 591 q 356 558 388 558 q 430 558 457 615 z m 421 226 q 334 238 282 238 q 198 238 150 208 q 101 177 101 125 q 101 83 134 53 q 167 23 218 23 q 269 23 319 50 q 369 78 421 136 z"},"h":{"x_min":0,"x_max":600,"ha":600,"o":"m 154 435 l 154 169 q 154 147 154 130 q 154 114 158 100 q 161 87 166 80 q 170 72 181 61 q 216 23 271 23 q 312 23 362 53 q 412 83 448 132 l 448 401 l 363 401 l 363 435 l 484 435 l 484 35 l 569 35 l 569 1 l 448 1 l 448 83 q 362 -10 268 -10 q 235 -10 205 2 q 175 14 154 35 q 117 75 117 166 l 117 401 l 33 401 l 33 435 z m 194 519 l 194 625 l 261 625 l 261 519 z m 342 519 l 342 625 l 408 625 l 408 519 z"},"z":{"x_min":0,"x_max":600,"ha":600,"o":"m 141 563 l 141 341 q 177 394 222 420 q 268 445 327 445 q 419 445 484 379 q 548 313 548 219 q 548 125 484 57 q 421 -11 329 -11 q 212 -11 141 96 l 141 -121 l 293 -121 l 293 -154 l 20 -154 l 20 -121 l 104 -121 l 104 530 l 20 530 l 20 563 z m 137 222 q 137 140 192 82 q 248 23 326 23 q 400 23 454 80 q 508 137 508 220 q 508 300 456 356 q 405 411 327 411 q 249 411 193 356 q 137 302 137 222 z"},"B":{"x_min":0,"x_max":600,"ha":600,"o":"m 104 403 q 153 422 202 434 q 251 445 289 445 q 358 445 403 418 q 458 384 458 299 l 458 35 l 553 35 l 553 1 l 421 1 l 421 88 q 329 -10 218 -10 q 148 -10 104 28 q 60 66 60 127 q 60 192 116 233 q 172 274 262 274 q 294 274 328 271 q 363 268 404 261 l 421 257 l 421 296 q 421 357 387 385 q 349 412 288 412 q 209 412 117 371 z m 191 663 l 286 663 l 420 487 l 380 487 z m 421 226 q 334 238 282 238 q 198 238 150 208 q 101 177 101 125 q 101 83 134 53 q 167 23 218 23 q 269 23 319 50 q 369 78 421 136 z"},"K":{"x_min":0,"x_max":600,"ha":600,"o":"m 531 564 l 531 391 l 496 391 l 496 530 l 182 530 l 182 315 l 362 315 l 362 391 l 397 391 l 397 208 l 362 208 l 362 282 l 182 282 l 182 35 l 503 35 l 503 176 l 538 176 l 538 1 l 61 1 l 61 35 l 145 35 l 145 530 l 61 530 l 61 564 z m 276 776 l 357 776 l 501 617 l 478 599 l 314 733 l 162 599 l 138 617 z"},"R":{"x_min":0,"x_max":600,"ha":600,"o":"m 322 435 l 322 35 l 498 35 l 498 1 l 104 1 l 104 35 l 286 35 l 286 400 l 133 400 l 133 435 z m 415 663 l 227 487 l 187 487 l 320 663 z"},"T":{"x_min":0,"x_max":600,"ha":600,"o":"m 322 435 l 322 35 l 498 35 l 498 1 l 104 1 l 104 35 l 286 35 l 286 400 l 133 400 l 133 435 z m 258 663 l 338 663 l 482 504 l 458 485 l 295 621 l 144 485 l 119 504 z"},"P":{"x_min":0,"x_max":600,"ha":600,"o":"m 487 109 l 521 94 q 486 42 434 16 q 382 -10 319 -10 q 211 -10 143 54 q 75 117 75 218 q 75 315 142 380 q 208 445 310 445 q 406 445 471 384 q 536 324 536 230 l 536 213 l 114 213 q 114 129 172 76 q 229 23 318 23 q 376 23 415 43 q 454 63 487 109 z m 191 663 l 286 663 l 420 487 l 380 487 z m 116 247 l 499 247 q 487 322 436 367 q 384 412 308 412 q 233 412 182 367 q 131 322 116 247 z"},"|":{"x_min":0,"x_max":600,"ha":600,"o":"m 104 403 q 153 422 202 434 q 251 445 289 445 q 358 445 403 418 q 458 384 458 299 l 458 35 l 553 35 l 553 1 l 421 1 l 421 88 q 329 -10 218 -10 q 148 -10 104 28 q 60 66 60 127 q 60 192 116 233 q 172 274 262 274 q 294 274 328 271 q 363 268 404 261 l 421 257 l 421 296 q 421 357 387 385 q 349 412 288 412 q 209 412 117 371 z m 113 627 l 167 627 q 212 561 306 561 q 399 561 444 627 l 498 627 q 479 577 426 546 q 373 514 306 514 q 241 514 188 544 q 136 574 113 627 z m 421 226 q 334 238 282 238 q 198 238 150 208 q 101 177 101 125 q 101 83 134 53 q 167 23 218 23 q 269 23 319 50 q 369 78 421 136 z"},"t":{"x_min":0,"x_max":600,"ha":600,"o":"m 67 218 q 67 317 132 381 q 198 445 301 445 q 401 445 467 382 q 533 319 533 218 q 533 117 470 54 q 406 -10 301 -10 q 201 -10 134 53 q 67 116 67 218 z m 451 615 l 491 605 q 476 565 446 538 q 417 515 377 515 q 355 515 338 522 q 322 528 291 549 l 264 567 l 244 578 q 236 582 219 585 q 177 585 149 520 l 109 530 q 142 628 217 628 q 253 628 306 591 l 329 576 l 348 565 q 364 560 382 558 q 427 558 451 615 z m 108 218 q 108 136 162 80 q 216 23 301 23 q 385 23 439 77 q 493 131 493 218 q 493 301 438 356 q 384 412 301 412 q 219 412 164 358 q 108 303 108 218 z"},"M":{"x_min":0,"x_max":600,"ha":600,"o":"m 531 564 l 531 391 l 496 391 l 496 530 l 182 530 l 182 315 l 362 315 l 362 391 l 397 391 l 397 208 l 362 208 l 362 282 l 182 282 l 182 35 l 503 35 l 503 176 l 538 176 l 538 1 l 61 1 l 61 35 l 145 35 l 145 530 l 61 530 l 61 564 z m 212 637 l 212 743 l 278 743 l 278 637 z m 360 637 l 360 743 l 427 743 l 427 637 z"},"g":{"x_min":0,"x_max":600,"ha":600,"o":"m 104 530 l 30 530 l 30 564 l 244 564 l 244 530 l 142 530 l 142 229 l 142 176 q 142 101 184 62 q 226 23 307 23 q 383 23 428 62 q 472 101 472 176 l 472 229 l 472 530 l 368 530 l 368 564 l 582 564 l 582 530 l 508 530 l 508 226 l 508 209 l 508 196 l 508 185 l 507 151 q 507 136 503 127 q 498 98 481 72 q 429 -10 307 -10 q 172 -10 123 87 q 114 110 108 138 l 104 226 z m 199 637 l 199 743 l 266 743 l 266 637 z m 347 637 l 347 743 l 413 743 l 413 637 z"},"j":{"x_min":0,"x_max":600,"ha":600,"o":"m 154 435 l 154 169 q 154 147 154 130 q 154 114 158 100 q 161 87 166 80 q 170 72 181 61 q 216 23 271 23 q 312 23 362 53 q 412 83 448 132 l 448 401 l 363 401 l 363 435 l 484 435 l 484 35 l 569 35 l 569 1 l 448 1 l 448 83 q 362 -10 268 -10 q 235 -10 205 2 q 175 14 154 35 q 117 75 117 166 l 117 401 l 33 401 l 33 435 z m 187 663 l 281 663 l 415 487 l 375 487 z"},"i":{"x_min":0,"x_max":600,"ha":600,"o":"m 104 530 l 30 530 l 30 564 l 244 564 l 244 530 l 142 530 l 142 229 l 142 176 q 142 101 184 62 q 226 23 307 23 q 383 23 428 62 q 472 101 472 176 l 472 229 l 472 530 l 368 530 l 368 564 l 582 564 l 582 530 l 508 530 l 508 226 l 508 209 l 508 196 l 508 185 l 507 151 q 507 136 503 127 q 498 98 481 72 q 429 -10 307 -10 q 172 -10 123 87 q 114 110 108 138 l 104 226 z m 192 776 l 280 776 l 421 602 l 381 602 z"},"y":{"x_min":0,"x_max":600,"ha":600,"o":"m 219 479 l 337 479 q 439 479 485 454 q 522 435 546 393 q 570 354 570 308 q 570 264 550 230 q 533 195 502 176 q 471 157 430 149 q 390 144 294 144 l 219 144 l 219 35 l 372 35 l 372 1 l 79 1 l 79 35 l 183 35 l 183 530 l 79 530 l 79 564 l 344 564 l 344 530 l 219 530 z m 219 446 l 219 177 l 296 177 l 316 177 l 332 177 l 345 177 l 356 177 q 397 177 413 181 q 445 186 471 200 q 497 215 513 246 q 521 263 525 277 q 529 291 529 310 q 529 344 512 375 q 494 406 463 426 q 452 431 443 434 q 434 436 408 441 q 381 446 338 446 z"},"@":{"x_min":0,"x_max":600,"ha":600,"o":"m 104 403 q 153 422 202 434 q 251 445 289 445 q 358 445 403 418 q 458 384 458 299 l 458 35 l 553 35 l 553 1 l 421 1 l 421 88 q 329 -10 218 -10 q 148 -10 104 28 q 60 66 60 127 q 60 192 116 233 q 172 274 262 274 q 294 274 328 271 q 363 268 404 261 l 421 257 l 421 296 q 421 357 387 385 q 349 412 288 412 q 209 412 117 371 z m 199 519 l 199 625 l 266 625 l 266 519 z m 347 519 l 347 625 l 413 625 l 413 519 z m 421 226 q 334 238 282 238 q 198 238 150 208 q 101 177 101 125 q 101 83 134 53 q 167 23 218 23 q 269 23 319 50 q 369 78 421 136 z"},".":{"x_min":0,"x_max":600,"ha":600,"o":"m 530 564 l 601 564 l 518 379 l 472 379 z"},"p":{"x_min":0,"x_max":600,"ha":600,"o":"m 497 525 l 582 525 l 582 492 l 497 492 l 497 35 l 582 35 l 582 1 l 461 1 l 461 97 q 398 -10 275 -10 q 187 -10 122 56 q 58 123 58 218 q 58 314 120 380 q 183 445 274 445 q 394 445 461 336 l 461 492 l 238 492 l 238 525 l 461 525 l 461 597 l 360 597 l 360 631 l 497 631 z m 99 218 q 99 138 150 80 q 201 23 278 23 q 356 23 407 77 q 458 131 458 218 q 458 301 406 356 q 355 412 278 412 q 204 412 152 358 q 99 303 99 218 z"},"X":{"x_min":0,"x_max":600,"ha":600,"o":"m 322 435 l 322 35 l 498 35 l 498 1 l 104 1 l 104 35 l 286 35 l 286 400 l 133 400 l 133 435 z m 187 663 l 281 663 l 415 487 l 375 487 z"},"*":{"x_min":0,"x_max":600,"ha":600,"o":"m 295 659 l 365 659 l 282 474 l 236 474 z"},"Y":{"x_min":0,"x_max":600,"ha":600,"o":"m 170 564 l 476 34 l 476 530 l 366 530 l 366 564 l 587 564 l 587 530 l 513 530 l 513 -10 l 459 -10 l 147 530 l 147 35 l 257 35 l 257 1 l 26 1 l 26 35 l 110 35 l 110 530 l 26 530 l 26 564 z m 457 728 l 497 718 q 482 678 452 651 q 423 628 383 628 q 363 628 346 634 q 328 641 297 662 l 253 690 l 225 697 q 180 697 155 633 l 115 644 q 150 741 224 741 l 243 740 q 249 740 262 733 q 281 727 312 704 l 334 689 l 355 678 q 371 673 389 671 q 409 671 430 686 q 450 701 457 728 z"},"c":{"x_min":0,"x_max":600,"ha":600,"o":"m 104 530 l 30 530 l 30 564 l 244 564 l 244 530 l 142 530 l 142 229 l 142 176 q 142 101 184 62 q 226 23 307 23 q 383 23 428 62 q 472 101 472 176 l 472 229 l 472 530 l 368 530 l 368 564 l 582 564 l 582 530 l 508 530 l 508 226 l 508 209 l 508 196 l 508 185 l 507 151 q 507 136 503 127 q 498 98 481 72 q 429 -10 307 -10 q 172 -10 123 87 q 114 110 108 138 l 104 226 z m 467 776 l 279 602 l 239 602 l 379 776 z"},"!":{"x_min":0,"x_max":600,"ha":600,"o":"m 187 662 l 281 662 l 415 487 l 375 487 z"},"/":{"x_min":0,"x_max":600,"ha":600,"o":"m 301 661 q 329 661 350 640 q 371 618 371 589 q 371 560 351 539 q 331 518 301 518 q 275 518 252 540 q 230 561 230 589 q 230 619 251 640 q 272 661 301 661 z m 301 627 q 289 627 279 616 q 273 607 271 589 q 271 574 278 563 q 286 554 301 551 q 314 551 322 562 q 331 573 331 589 q 331 603 323 614 q 315 624 301 627 z"},"[":{"x_min":0,"x_max":600,"ha":600,"o":"m 44 283 q 44 408 116 492 q 188 575 301 575 q 412 575 485 492 q 558 410 558 283 q 558 155 485 72 q 412 -10 301 -10 q 191 -10 118 71 q 44 152 44 283 z m 415 776 l 227 602 l 187 602 l 327 776 z m 85 282 q 85 170 146 96 q 207 23 301 23 q 394 23 456 97 q 518 171 518 282 q 518 396 457 469 q 396 542 301 542 q 208 542 146 468 q 85 395 85 282 z"},"6":{"x_min":0,"x_max":600,"ha":600,"o":"m -21 711 l 622 711 l 622 660 l -21 660 z"},"r":{"x_min":0,"x_max":600,"ha":600,"o":"m 117 69 q 96 97 79 140 q 66 184 66 218 q 66 317 132 381 q 197 445 299 445 q 344 445 383 433 q 422 421 455 394 l 508 445 l 534 419 l 480 368 q 506 333 519 296 q 532 258 532 218 q 532 116 467 53 q 402 -10 298 -10 l 279 -10 q 269 -10 253 -8 q 240 -8 214 2 q 187 11 144 43 l 92 -7 l 65 20 z m 146 97 l 427 367 q 399 389 368 400 q 338 412 299 412 q 215 412 161 358 q 107 304 107 219 q 107 156 146 97 z m 452 341 l 171 69 q 232 23 300 23 q 384 23 438 77 q 492 131 492 218 q 492 282 452 341 z"},"2":{"x_min":0,"x_max":600,"ha":600,"o":"m 290 -21 l 322 -21 l 322 -52 q 370 -57 370 -109 q 370 -133 352 -156 q 333 -175 306 -175 q 292 -175 280 -172 q 269 -168 251 -155 l 268 -127 l 276 -130 q 287 -136 296 -136 q 323 -136 323 -106 q 323 -81 299 -81 l 282 -83 z"},"{":{"x_min":0,"x_max":600,"ha":600,"o":"m 324 564 l 541 35 l 590 35 l 590 1 l 394 1 l 394 35 l 501 35 l 438 191 l 166 191 l 102 35 l 205 35 l 205 1 l 12 1 l 12 35 l 61 35 l 266 530 l 113 530 l 113 564 z m 108 742 l 155 742 q 178 711 215 692 q 252 675 301 675 q 397 675 446 742 l 493 742 q 472 688 421 658 q 370 628 301 628 q 232 628 182 658 q 132 688 108 742 z m 303 522 l 179 226 l 423 226 z"},"9":{"x_min":0,"x_max":600,"ha":600,"o":"m 510 0 l 417 0 l 273 222 l 208 156 l 208 35 l 271 35 l 271 0 l 107 0 l 107 35 l 170 35 l 170 397 l 107 397 l 107 432 l 271 432 l 271 397 l 208 397 l 208 209 l 402 397 l 355 397 l 355 432 l 508 432 l 508 397 l 456 397 l 301 246 l 441 35 l 510 35 z"}," ":{"x_min":0,"x_max":600,"ha":600,"o":""},"I":{"x_min":0,"x_max":600,"ha":600,"o":"m 531 564 l 531 391 l 496 391 l 496 530 l 182 530 l 182 315 l 362 315 l 362 391 l 397 391 l 397 208 l 362 208 l 362 282 l 182 282 l 182 35 l 503 35 l 503 176 l 538 176 l 538 1 l 61 1 l 61 35 l 145 35 l 145 530 l 61 530 l 61 564 z m 434 776 l 245 601 l 205 601 l 346 776 z"},"H":{"x_min":0,"x_max":600,"ha":600,"o":"m 324 -10 l 324 -52 q 372 -57 372 -109 q 372 -133 354 -156 q 335 -175 308 -175 q 294 -175 282 -172 q 271 -168 253 -155 l 270 -127 l 277 -130 q 288 -136 298 -136 q 325 -136 325 -106 q 325 -95 318 -88 q 312 -82 301 -81 l 284 -83 l 291 -10 q 243 -10 205 8 q 167 26 133 60 q 74 122 74 218 q 74 316 144 380 q 213 445 318 445 q 408 445 476 398 l 483 444 l 517 439 l 505 368 l 517 290 l 483 285 q 482 301 480 313 q 477 325 472 334 q 466 350 450 366 q 432 387 396 399 q 361 411 320 411 q 232 411 174 356 q 115 302 115 217 q 115 133 172 78 q 229 23 312 23 q 363 23 419 48 l 448 62 l 469 75 l 490 91 l 504 100 l 523 70 q 468 30 426 14 q 383 -2 324 -10 z"},"4":{"x_min":0,"x_max":600,"ha":600,"o":"m 344 480 l 264 480 l 119 639 l 144 657 l 307 522 l 458 657 l 482 639 z"},"~":{"x_min":0,"x_max":600,"ha":600,"o":"m 104 403 q 153 422 202 434 q 251 445 289 445 q 358 445 403 418 q 458 384 458 299 l 458 35 l 553 35 l 553 1 l 421 1 l 421 88 q 329 -10 218 -10 q 148 -10 104 28 q 60 66 60 127 q 60 192 116 233 q 172 274 262 274 q 294 274 328 271 q 363 268 404 261 l 421 257 l 421 296 q 421 357 387 385 q 349 412 288 412 q 209 412 117 371 z m 95 579 l 517 579 l 517 546 l 95 546 z m 421 226 q 334 238 282 238 q 198 238 150 208 q 101 177 101 125 q 101 83 134 53 q 167 23 218 23 q 269 23 319 50 q 369 78 421 136 z"},"D":{"x_min":0,"x_max":600,"ha":600,"o":"m 104 403 q 153 422 202 434 q 251 445 289 445 q 358 445 403 418 q 458 384 458 299 l 458 35 l 553 35 l 553 1 l 421 1 l 421 88 q 329 -10 218 -10 q 148 -10 104 28 q 60 66 60 127 q 60 192 116 233 q 172 274 262 274 q 294 274 328 271 q 363 268 404 261 l 421 257 l 421 296 q 421 357 387 385 q 349 412 288 412 q 209 412 117 371 z m 293 661 q 319 661 341 640 q 363 620 363 590 q 363 560 342 540 q 322 519 293 519 q 263 519 243 539 q 223 559 223 590 q 223 619 243 640 q 263 661 293 661 z m 421 226 q 334 238 282 238 q 198 238 150 208 q 101 177 101 125 q 101 83 134 53 q 167 23 218 23 q 269 23 319 50 q 369 78 421 136 z m 293 628 q 281 628 271 617 q 265 608 263 590 q 263 573 271 562 q 279 555 293 552 q 305 552 314 562 l 320 573 l 322 590 q 322 602 314 615 q 305 628 293 628 z"},"^":{"x_min":0,"x_max":600,"ha":600,"o":"m 67 218 q 67 317 132 381 q 198 445 301 445 q 401 445 467 382 q 533 319 533 218 q 533 117 470 54 q 406 -10 301 -10 q 201 -10 134 53 q 67 116 67 218 z m 271 663 l 352 663 l 495 505 l 472 486 l 309 621 l 157 486 l 132 505 z m 108 218 q 108 136 162 80 q 216 23 301 23 q 385 23 439 77 q 493 131 493 218 q 493 301 438 356 q 384 412 301 412 q 219 412 164 358 q 108 303 108 218 z"},"0":{"x_min":0,"x_max":600,"ha":600,"o":"m 268 519 l 268 625 l 334 625 l 334 519 z"},"F":{"x_min":0,"x_max":600,"ha":600,"o":"m 61 395 q 94 420 126 432 q 157 445 192 445 q 240 445 266 426 q 292 408 305 361 q 359 445 431 445 q 489 445 528 391 q 545 366 556 327 q 565 289 565 230 l 565 211 l 314 211 l 314 205 q 314 117 350 70 q 385 23 450 23 l 481 24 q 492 24 508 32 q 525 38 555 63 l 568 31 q 514 -11 449 -11 q 341 -11 301 92 q 237 -11 148 -11 q 98 -11 67 23 q 36 57 36 110 q 36 172 78 216 q 120 260 186 260 q 233 260 278 251 l 278 295 q 278 362 258 385 q 240 411 191 411 q 158 411 134 402 q 111 392 77 364 z m 278 211 q 262 219 242 223 l 196 227 q 141 227 108 195 q 75 165 75 114 q 75 79 96 51 q 117 23 152 23 q 180 23 216 47 q 247 71 278 112 z m 313 245 l 529 245 l 526 298 q 523 320 516 339 q 489 411 429 411 q 381 411 347 365 q 313 319 313 254 z"},"`":{"x_min":0,"x_max":600,"ha":600,"o":"m 67 218 q 67 317 132 381 q 198 445 301 445 q 401 445 467 382 q 533 319 533 218 q 533 117 470 54 q 406 -10 301 -10 q 201 -10 134 53 q 67 116 67 218 z m 193 519 l 193 625 l 260 625 l 260 519 z m 341 519 l 341 625 l 407 625 l 407 519 z m 108 218 q 108 136 162 80 q 216 23 301 23 q 385 23 439 77 q 493 131 493 218 q 493 301 438 356 q 384 412 301 412 q 219 412 164 358 q 108 303 108 218 z"},"k":{"x_min":0,"x_max":600,"ha":600,"o":"m 136 530 l 302 259 l 465 530 l 386 530 l 386 564 l 566 564 l 566 530 l 508 530 l 320 219 l 320 35 l 445 35 l 445 1 l 158 1 l 158 35 l 283 35 l 283 219 l 94 530 l 36 530 l 36 564 l 220 564 l 220 530 z m 194 637 l 194 743 l 261 743 l 261 637 z m 342 637 l 342 743 l 408 743 l 408 637 z"},"u":{"x_min":0,"x_max":600,"ha":600,"o":"m 136 530 l 302 259 l 465 530 l 386 530 l 386 564 l 566 564 l 566 530 l 508 530 l 320 219 l 320 35 l 445 35 l 445 1 l 158 1 l 158 35 l 283 35 l 283 219 l 94 530 l 36 530 l 36 564 l 220 564 l 220 530 z m 462 776 l 273 601 l 233 601 l 374 776 z"},"]":{"x_min":0,"x_max":600,"ha":600,"o":"m 44 283 q 44 408 116 492 q 188 575 301 575 q 412 575 485 492 q 558 410 558 283 q 558 155 485 72 q 412 -10 301 -10 q 191 -10 118 71 q 44 152 44 283 z m 258 776 l 339 776 l 482 617 l 459 599 l 296 734 l 144 599 l 119 617 z m 85 282 q 85 170 146 96 q 207 23 301 23 q 394 23 456 97 q 518 171 518 282 q 518 396 457 469 q 396 542 301 542 q 208 542 146 468 q 85 395 85 282 z"},"U":{"x_min":0,"x_max":600,"ha":600,"o":"m 104 564 l 498 564 l 498 530 l 321 530 l 321 35 l 498 35 l 498 1 l 104 1 l 104 35 l 284 35 l 284 530 l 104 530 z m 193 637 l 193 743 l 260 743 l 260 637 z m 341 637 l 341 743 l 408 743 l 408 637 z"},"o":{"x_min":0,"x_max":600,"ha":600,"o":"m 118 35 l 118 277 l 44 277 l 44 311 l 118 311 l 118 530 l 34 530 l 34 564 l 282 564 q 353 564 398 549 q 442 536 478 499 q 552 422 552 283 q 552 207 529 151 q 510 95 466 56 q 435 28 391 14 q 345 1 282 1 l 34 1 l 34 35 z m 155 35 l 282 35 q 342 35 380 47 q 417 59 446 91 q 477 123 494 174 q 512 225 512 282 q 512 340 490 396 q 469 453 438 483 q 386 530 282 530 l 155 530 l 155 311 l 324 311 l 324 277 l 155 277 z"},"N":{"x_min":0,"x_max":600,"ha":600,"o":"m 487 109 l 521 94 q 486 42 434 16 q 382 -10 319 -10 q 211 -10 143 54 q 75 117 75 218 q 75 315 142 380 q 208 445 310 445 q 406 445 471 384 q 536 324 536 230 l 536 213 l 114 213 q 114 129 172 76 q 229 23 318 23 q 376 23 415 43 q 454 63 487 109 z m 198 519 l 198 625 l 265 625 l 265 519 z m 347 519 l 347 625 l 413 625 l 413 519 z m 116 247 l 499 247 q 487 322 436 367 q 384 412 308 412 q 233 412 182 367 q 131 322 116 247 z"},"+":{"x_min":0,"x_max":600,"ha":600,"o":"m 530 659 l 601 659 l 518 474 l 472 474 z"},"G":{"x_min":0,"x_max":600,"ha":600,"o":"m 332 -10 l 332 -45 q 380 -50 380 -103 q 380 -130 361 -149 q 342 -168 315 -168 q 301 -168 290 -164 l 261 -148 l 277 -120 l 286 -123 q 297 -129 306 -129 q 333 -129 333 -100 q 333 -74 309 -74 l 293 -76 l 299 -8 q 195 5 130 86 q 65 166 65 286 q 65 410 140 492 q 216 575 331 575 q 391 575 428 558 q 471 541 509 499 l 517 560 l 549 554 l 537 459 l 549 383 l 517 376 l 511 414 q 510 422 508 427 q 507 432 503 441 q 494 463 475 483 q 420 541 335 541 q 235 541 170 469 q 106 397 106 285 q 106 170 170 96 q 233 23 336 23 q 404 23 463 57 l 486 70 l 525 98 l 548 67 q 448 -10 338 -10 z"},"q":{"x_min":0,"x_max":600,"ha":600,"o":"m 117 71 q 43 159 43 283 q 43 407 114 491 q 185 575 292 575 q 323 575 346 572 q 370 569 390 561 q 428 547 466 512 l 506 563 l 535 541 l 490 484 q 557 408 557 281 q 557 156 484 73 q 412 -10 300 -10 q 254 -10 218 2 q 183 14 144 46 l 98 -13 l 70 13 z m 142 103 l 442 482 q 378 541 300 541 q 207 541 146 468 q 84 394 84 282 q 84 183 142 103 z m 466 453 l 167 75 q 225 23 301 23 q 393 23 455 97 q 517 171 517 281 q 517 379 466 453 z"},"d":{"x_min":0,"x_max":600,"ha":600,"o":"m 154 435 l 154 169 q 154 147 154 130 q 154 114 158 100 q 161 87 166 80 q 170 72 181 61 q 216 23 271 23 q 312 23 362 53 q 412 83 448 132 l 448 401 l 363 401 l 363 435 l 484 435 l 484 35 l 569 35 l 569 1 l 448 1 l 448 83 q 362 -10 268 -10 q 235 -10 205 2 q 175 14 154 35 q 117 75 117 166 l 117 401 l 33 401 l 33 435 z m 462 663 l 273 487 l 233 487 l 367 663 z"},"1":{"x_min":0,"x_max":600,"ha":600,"o":"m 342 646 l 170 471 l 135 471 l 274 646 z m 454 646 l 283 471 l 247 471 l 387 646 z"},"5":{"x_min":0,"x_max":600,"ha":600,"o":"m 445 393 l 445 356 l 163 227 l 163 263 z"}}}
